<svg width="165" height="48" viewBox="0 0 165 48" fill="none" xmlns="http://www.w3.org/2000/svg">
<g clip-path="url(#clip0_12277_74176)">
<path fill-rule="evenodd" clip-rule="evenodd" d="M70.9446 0H62.698L34.8538 21.591C29.2557 25.5357 24.3318 29.353 20.717 30.2692C15.7996 31.5147 9.41332 32.2212 0 32.0272C2.28406 32.5215 4.59158 32.9004 6.91379 33.1624C13.4031 33.8668 19.5911 36.2731 24.8514 40.1378C27.9336 42.3804 29.8254 44.3187 32.0157 45.6186C34.6402 47.1205 37.5999 47.9391 40.6231 47.9993C43.328 48.0103 46.0237 47.6838 48.6478 47.0272C45.9319 47.1419 43.2118 46.947 40.5401 46.446C38.178 45.945 33.1674 44.1748 32.5984 41.2974C32.0573 38.543 38.9775 36.43 41.7061 36.0378C46.7719 35.312 51.8997 35.1172 57.006 35.4565C54.0906 34.322 53.2839 32.9377 53.2839 31.7473C53.2839 30.557 54.1171 29.4224 54.6167 28.5642L70.9446 0Z" fill="#D9000D"/>
<path fill-rule="evenodd" clip-rule="evenodd" d="M41.5457 21.4063L41.1807 21.5494C41.7193 24.7358 42.7306 27.8238 44.1813 30.7115C44.7446 31.7852 45.6229 33.619 46.509 35.518C46.7586 35.4989 47.0053 35.4815 47.2491 35.4658C46.5756 33.4007 45.9349 31.3643 45.6028 30.1553C44.6925 27.0549 43.3249 24.1075 41.545 21.4105L41.5457 21.4063ZM23.9252 38.5372C23.8908 38.5801 23.8629 38.6159 23.845 38.6396C23.8643 38.6166 23.8915 38.5809 23.9252 38.5372ZM37.7635 21.0906L37.4543 20.8508C34.9841 22.9378 32.8385 25.3811 31.0881 28.1003C29.4804 30.6993 24.7247 37.4843 23.9252 38.5372C24.7505 37.5043 30.1676 31.2304 32.2949 29.0344C34.5027 26.6725 36.3461 23.9947 37.7642 21.0892L37.7635 21.0906ZM42.3825 20.8794L42.0668 21.1106C43.4053 24.0527 45.1749 26.7787 47.3171 29.199C48.4867 30.4731 50.672 33.08 52.4944 35.2954H52.9955C51.3878 32.8503 49.4487 29.8411 48.5497 28.295C46.8736 25.5306 44.7951 23.0313 42.3825 20.8794ZM43.7496 18.3262L43.6867 18.712C46.7088 19.8772 49.8872 20.5871 53.1179 20.8186C54.392 20.8902 56.5665 21.087 58.7662 21.3103L59.119 20.6926C56.8808 20.1916 54.6396 19.6669 53.3641 19.3154C50.2258 18.511 46.9854 18.1769 43.7489 18.3241L43.7496 18.3262ZM43.0568 20.1565L42.8105 20.4607C44.8596 22.9638 47.2698 25.148 49.962 26.9414C50.9011 27.5434 52.3906 28.5727 53.9546 29.6772C54.0892 29.4374 54.2295 29.2083 54.3626 28.9915C52.9812 27.7288 51.6949 26.5284 50.9218 25.7568C48.5923 23.5106 45.9416 21.6227 43.0568 20.1565ZM53.271 15.8439C50.0319 15.8675 46.8143 16.3716 43.7232 17.3399L43.7611 17.7285C46.9807 18.0843 50.2354 17.9601 53.4185 17.3599C55.2158 16.9877 58.8864 16.4022 61.8226 15.9613L62.0373 15.5898C59.031 15.7258 55.16 15.8646 53.2732 15.8446L53.271 15.8439ZM43.5199 19.2868L43.3603 19.6447C45.9834 21.5408 48.8739 23.0364 51.9368 24.0826C52.9583 24.4118 54.5731 24.9931 56.2917 25.6323L56.6932 24.9301C55.0426 24.0668 53.5008 23.2394 52.5603 22.6925C49.7321 21.1159 46.6854 19.9681 43.5199 19.2868ZM39.2251 21.6919C38.1135 24.7243 37.4609 27.9057 37.2889 31.1309C37.2396 32.5217 37.0534 34.9919 36.8487 37.3919C37.0713 37.3032 37.2968 37.2187 37.5216 37.1378C37.984 34.8881 38.4707 32.6284 38.8007 31.3478C39.5477 28.2058 39.8213 24.9698 39.6124 21.747L39.2251 21.6883V21.6919ZM60.6945 2.10217C60.7389 2.06925 60.7747 2.04205 60.7983 2.02344C60.7704 2.04062 60.7381 2.06782 60.6945 2.10217ZM37.0263 20.4328L36.7886 20.1221L36.6583 20.1901L34.851 21.5916C32.0787 23.545 29.4718 25.4662 27.1069 27.0209C24.3153 29.4947 20.0141 33.1122 19.1709 33.7701C20.2339 32.9827 27.0804 28.2986 29.7002 26.7181C32.4401 24.9979 34.9097 22.8796 37.0263 20.4328ZM19.1709 33.7701C19.1265 33.803 19.0908 33.8295 19.0671 33.8488C19.0922 33.8309 19.1273 33.8044 19.1709 33.7701ZM40.6016 21.7019L40.2122 21.747C39.9157 24.963 40.1013 28.2052 40.7627 31.3664C41.0075 32.4401 41.3425 34.1874 41.6789 36.0448L41.7068 36.0405C41.9611 36.0038 42.2138 35.9687 42.4648 35.9353C42.3653 34.0571 42.2894 32.2848 42.2801 31.1904C42.1961 27.9616 41.6303 24.7635 40.6016 21.7019ZM29.7438 41.9343C29.7216 41.9844 29.7037 42.0259 29.693 42.0539C29.7052 42.0267 29.7231 41.9851 29.7438 41.9343ZM38.2846 21.3862C36.4317 24.0338 34.9842 26.9431 33.9899 30.0179C33.103 32.9397 30.247 40.7118 29.7438 41.9343C30.2771 40.7246 33.9026 33.279 35.3978 30.6134C36.9258 27.7669 38.0204 24.7083 38.6454 21.5387L38.2875 21.3862H38.2846ZM43.444 16.3098L43.58 16.6763C46.7843 16.1995 49.9 15.2493 52.8251 13.8568C55.5644 12.4918 63.1919 9.22211 64.4287 8.74683C63.1804 9.19134 55.2617 11.6816 52.2933 12.4296C49.1686 13.2778 46.1873 14.5855 43.4469 16.3098H43.444ZM64.4252 8.74683C64.4774 8.72822 64.5189 8.71247 64.5476 8.70174C64.5189 8.71176 64.4774 8.72679 64.4252 8.74683ZM51.0915 10.3652C53.3104 8.26296 59.6502 2.91674 60.6945 2.10217C60.0467 2.58247 57.2537 4.50722 54.5774 6.29669L42.9816 15.287L42.8384 15.4402L43.0761 15.7508C46.0005 14.3632 48.7024 12.5484 51.0929 10.3659L51.0915 10.3652Z" fill="#EF7000"/>
<path fill-rule="evenodd" clip-rule="evenodd" d="M75.3373 29.2752L73.2801 32.6437C73.097 32.9173 72.8446 33.1375 72.5486 33.2818C72.2525 33.426 71.9236 33.4891 71.5952 33.4647H67.5639L68.042 32.6931H68.5237C68.6695 32.7096 68.817 32.6878 68.9517 32.6298C69.0864 32.5718 69.2037 32.4796 69.2918 32.3624L71.2108 29.3854H68.9081L66.0285 33.799C66.0285 33.799 65.3191 34.6808 66.5496 34.6808H72.6524C72.7765 34.661 72.9037 34.6735 73.0216 34.7172C73.1395 34.7609 73.2441 34.8342 73.3253 34.9301C73.4066 35.0261 73.4617 35.1413 73.4854 35.2648C73.5091 35.3883 73.5005 35.5158 73.4605 35.6349L73.3016 36.335H68.8115C68.8544 36.2458 68.8722 36.1466 68.8629 36.0481C68.8535 35.9496 68.8174 35.8555 68.7584 35.7761C68.6994 35.6966 68.6199 35.6348 68.5283 35.5973C68.4367 35.5598 68.3366 35.5481 68.2388 35.5634H62.8175C60.872 35.5634 61.8061 34.0194 61.8061 34.0194L64.8431 29.2752H62.6772L63.1575 28.5988H77.7345L77.2914 29.2752H75.3373ZM87.4477 31.2966C87.4477 31.2966 87.1943 31.7539 86.8873 31.7539H86.3955L86.3597 31.9408C86.3597 31.9408 86.9023 32.2528 86.4313 33.0216C85.9603 33.7904 85.2553 34.8297 85.2553 34.8297C85.0359 35.0904 84.7571 35.2945 84.4422 35.4247C84.1274 35.5549 83.7859 35.6073 83.4465 35.5777H75.7074C74.8391 35.5777 75.255 34.5591 75.255 34.5591L75.4182 33.9979H79.398C79.398 33.9979 79.0358 34.8504 79.8861 34.8504H80.8088C80.9381 34.8631 81.0684 34.8408 81.1861 34.7859C81.3038 34.731 81.4046 34.6455 81.4781 34.5384L82.5346 32.8548C82.5346 32.8548 82.7436 32.3767 81.8395 32.3767H79.7773L80.2297 31.527H83.3076L84.3204 30.0905C84.3204 30.0905 84.7492 29.3468 83.775 29.3468H82.8166C82.4007 29.3468 82.1201 29.8979 82.1201 29.8979L81.8037 30.3653H77.6629L78.368 29.3052C78.4529 29.1141 78.593 28.9526 78.7702 28.8416C78.9475 28.7305 79.1538 28.6749 79.3629 28.6818H87.9702C89.1091 28.6818 88.5851 29.5758 88.5851 29.5758L87.4463 31.3009L87.4477 31.2966ZM95.2262 29.4677L91.6079 35.5984H87.4477L89.4011 32.3566H87.7004L88.1349 31.5693H89.7984L91.2099 29.5329H89.6724L90.2507 28.7018H97.4136L96.8532 29.4706H95.2255L95.2262 29.4677ZM103.927 29.447L102.607 31.7124C102.607 31.7124 102.209 32.4189 101.703 32.4189H100.564C100.654 32.5665 100.7 32.7367 100.697 32.9097C100.694 33.0826 100.642 33.2511 100.546 33.3952C100.202 33.8526 99.9124 34.2055 99.9124 34.2055C99.9124 34.2055 99.3699 34.9643 100.383 34.9643H102.2L101.703 35.6607H96.2584C95.3722 35.6607 95.5519 34.4968 95.8604 34.1232C96.1012 33.8252 96.313 33.505 96.4931 33.1669C96.982 32.3795 95.9864 32.2944 95.9864 32.2944L96.3657 31.7124H98.6269L100.058 29.4677H98.5202L98.9733 28.699H106.027L105.558 29.447H103.927ZM122.704 29.447H121.836L121.021 30.8599C120.919 30.991 120.787 31.0954 120.635 31.1642C120.484 31.233 120.319 31.2642 120.153 31.255H114.581C114.256 31.255 113.749 32.1906 114.51 32.1906H119.358C120.389 32.1906 119.756 33.0008 119.756 33.0008L118.309 35.3286C118.197 35.4922 118.049 35.6279 117.877 35.7251C117.704 35.8223 117.512 35.8784 117.314 35.8891H111.724L111.29 36.7831H108.577L109.066 35.869C109.066 35.869 108.071 35.7652 108.397 34.8504C108.758 34.1647 108.867 33.9364 108.867 33.9364H112.736L112.628 34.4374C112.628 34.4374 112.413 35.0194 112.935 35.0194H114.184C114.545 35.0194 114.835 34.6035 114.835 34.6035L115.36 33.751C115.401 33.6738 115.42 33.5866 115.415 33.4991C115.409 33.4117 115.379 33.3275 115.329 33.2562C115.278 33.1848 115.208 33.1291 115.127 33.0954C115.046 33.0617 114.957 33.0512 114.871 33.0653H110.114C109.39 33.0653 109.644 32.3588 109.644 32.3588L110.367 31.0289C110.491 30.832 110.666 30.6721 110.873 30.5661C111.079 30.46 111.311 30.4117 111.543 30.4262H117.277L117.693 29.6782C117.693 29.6782 117.729 29.4906 117.35 29.4906H111.452L111.977 28.6388H123.193L122.704 29.4498V29.447ZM118.815 27.5573L119.375 26.664H123.428L123.03 27.5573H118.815ZM137.236 27.3984H130.086C129.95 27.4038 129.819 27.4507 129.711 27.5329C129.602 27.615 129.521 27.7284 129.479 27.8579L129.079 28.631H137.395L137.7 27.951C137.7 27.951 137.939 27.3998 137.236 27.3998V27.3984ZM142.163 29.4563H140.978L140.115 30.9995C140.115 30.9995 139.954 31.3667 139.315 31.3667H133.972C133.429 31.3667 133.156 32.2851 133.893 32.2851H138.339C139.49 32.2851 138.963 33.2041 138.963 33.2041L137.908 35.1153C137.764 35.3558 137.556 35.5518 137.308 35.6816C137.06 35.8113 136.78 35.8698 136.501 35.8504H128.407C127.127 35.8504 127.56 34.7481 127.56 34.7481L127.88 34.1969H132.086C132.086 34.1969 131.574 35.0788 132.15 35.0788H133.494C133.862 35.0788 134.118 34.6565 134.118 34.6565L134.582 33.683C134.582 33.683 134.758 33.1318 134.009 33.1318H129.626C128.619 33.1318 129.054 32.323 129.054 32.323L129.626 31.3309C129.768 31.091 129.977 30.8974 130.226 30.7734C130.476 30.6495 130.756 30.6004 131.033 30.6323H136.44L137.012 29.4563H128.566L124.824 35.8139H120.569L124.536 29.4198H123.576L124.057 28.6116H125.017L125.979 27.1428C125.979 27.1428 126.107 26.6289 127.195 26.6289H141.654C142.31 26.6289 142.614 27.0147 142.343 27.4929C142.072 27.971 141.654 28.724 141.654 28.724H142.646L142.167 29.4591L142.163 29.4563ZM152.339 29.5851H150.816C150.726 29.5763 150.635 29.5958 150.556 29.6411C150.477 29.6864 150.414 29.7551 150.375 29.8378L149.693 31.0267C149.639 31.1436 149.556 31.2446 149.452 31.3199C149.348 31.3952 149.226 31.4421 149.099 31.4562H145.2L144.76 32.2657C144.76 32.2657 144.297 33.0531 145.112 33.0531H150.794L152.446 30.1685C152.446 30.1685 152.779 29.5865 152.338 29.5865L152.339 29.5851ZM162.977 29.7619L159.364 36.3157H155.246L158.681 30.142C158.681 30.142 159.099 29.4842 158.571 29.4842H157.162C156.744 29.4842 156.479 29.9902 156.479 29.9902L153.153 36.063H149.057L150.048 34.4439C150.048 34.4439 150.224 33.9128 149.454 33.9128H140.93C139.674 33.9128 140.665 32.4454 140.665 32.4454L141.678 30.6237H145.576C146.193 30.6237 146.854 29.4849 146.039 29.4849H143.55L144.082 28.7226H164.618L164.631 29.7633L162.977 29.7619Z" fill="white"/>
<path fill-rule="evenodd" clip-rule="evenodd" d="M153.554 45.6619H151.736L154.891 41.9097L153.554 45.6619ZM149.852 40.9606L143.873 48.0018H149.767L150.61 46.9997H153.078L152.72 48.0018H158.145L160.127 40.9606H149.852ZM140.69 40.9606L137.008 48.0018H142.902L146.527 40.9606H140.69ZM132.588 43.3993L131.187 45.8172C131.044 46.1035 130.84 46.2181 130.286 46.2181H128.963L130.896 42.7007H132.176C132.82 42.7007 132.682 43.1674 132.588 43.4014L132.588 43.3993ZM137.026 40.9592H131.865H126.027L122.346 48.0004H133.956C135.431 48.0004 135.741 47.407 135.741 47.407L138.345 42.4623C138.712 41.7759 138.413 40.9592 137.026 40.9592ZM119.566 40.9592L118.459 43.0772L116.916 40.9592H110.981L107.297 48.0018H111.849L113.268 45.246L115.069 48.0018H120.433L124.059 40.9606L119.566 40.9592ZM103.537 40.9592L99.8524 48.0018H105.746L109.371 40.9606L103.537 40.9592ZM89.5787 43.3979L89.2473 44.1559C89.1041 44.4422 88.8994 44.5567 88.3461 44.5567H87.0183L87.8837 42.6993H89.1642C89.807 42.6993 89.6703 43.1638 89.5758 43.3993L89.5787 43.3979ZM94.0166 40.957H88.855H83.0178L79.3358 47.9982H85.2296L86.4271 45.6469C86.5384 45.6489 86.6471 45.681 86.7416 45.7399C86.8362 45.7988 86.913 45.8821 86.9639 45.9811L88.097 47.9596H93.4654L92.1119 45.5195C93.5878 45.5195 93.8963 44.9261 93.8963 44.9261L95.3322 42.4666C95.698 41.7802 95.4002 40.9635 94.013 40.9635L94.0166 40.957ZM75.8413 40.957L72.1514 48.0018H78.0452L81.6707 40.9606L75.8413 40.957ZM66.6327 45.6619H64.8132L67.9691 41.9097L66.6327 45.6619ZM62.9306 40.9606L56.9517 48.0018H62.8462L63.6894 46.9997H66.1567L65.7988 48.0018H71.2209L73.2029 40.9606H62.9306Z" fill="white"/>
</g>
<defs>
<clipPath id="clip0_12277_74176">
<rect width="164.628" height="48" fill="white"/>
</clipPath>
</defs>
</svg>
